# xmcd
#
# Track frame offsets: 
#        150
#        19880
#        46445
#        62262
#        77490
#        103895
#        121470
#        137165
#        151115
#        162077
#        179412
#        194962
#        207227
#        226235
#        240540
#
# Disc length: 3438 seconds
#
# Revision: 2
# Processed by: cddbd v1.5.2PL0 Copyright (c) Steve Scherf et al.
# Submitted via: ExactAudioCopy v1.0b1
#
DISCID=c80d6c0f
DTITLE=Backsliders - Live At The Royal
DYEAR=2000
DGENRE=Blues
TTITLE0=Write Me A Few Lines
TTITLE1=Moon Going Down
TTITLE2=Saddle My Pony
TTITLE3=Dehlia
TTITLE4=Medley - How Many More Years - Diddley Daddy - Black Betty
TTITLE5=If I Had Possesion Over Judgement Day
TTITLE6=Shake 'em On Down
TTITLE7=Loiuse
TTITLE8=Georgia Rag
TTITLE9=Hard Times Killing Floor
TTITLE10=I'm Going Down
TTITLE11=32-20 Blues
TTITLE12=Broke Down Engine
TTITLE13=The Gallows Pole
TTITLE14=Walkin' Blues
EXTD=YEAR: 2000  ID3G:   0
EXTT0=
EXTT1=
EXTT2=
EXTT3=
EXTT4=
EXTT5=
EXTT6=
EXTT7=
EXTT8=
EXTT9=
EXTT10=
EXTT11=
EXTT12=
EXTT13=
EXTT14=
PLAYORDER=
